<!--<svg viewBox="0 0 627 894" fill="none">
  <path
    fill-rule="evenodd"
    clip-rule="evenodd"
    d="M445.433 22.9832C452.722 32.0324 456.439 44.2432 463.873 68.6647L626.281 602.176C566.234 571.026 500.957 548.56 432.115 536.439L326.371 179.099C324.641 173.252 319.27 169.241 313.173 169.241C307.06 169.241 301.68 173.273 299.963 179.14L195.5 536.259C126.338 548.325 60.7632 570.832 0.459473 602.095L163.664 68.5412C171.121 44.1617 174.85 31.9718 182.14 22.9393C188.575 14.9651 196.946 8.77213 206.454 4.95048C217.224 0.621582 229.971 0.621582 255.466 0.621582H372.034C397.562 0.621582 410.326 0.621582 421.106 4.95951C430.622 8.78908 438.998 14.9946 445.433 22.9832Z"
    fill="currentColor"
  />
  <path
    fill-rule="evenodd"
    clip-rule="evenodd"
    d="M464.867 627.566C438.094 650.46 384.655 666.073 323.101 666.073C247.551 666.073 184.229 642.553 167.426 610.921C161.419 629.05 160.072 649.798 160.072 663.052C160.072 663.052 156.114 728.134 201.38 773.401C201.38 749.896 220.435 730.842 243.939 730.842C284.226 730.842 284.181 765.99 284.144 794.506C284.143 795.36 284.142 796.209 284.142 797.051C284.142 840.333 310.595 877.436 348.215 893.075C342.596 881.518 339.444 868.54 339.444 854.825C339.444 813.545 363.679 798.175 391.845 780.311C414.255 766.098 439.155 750.307 456.315 718.629C465.268 702.101 470.352 683.17 470.352 663.052C470.352 650.68 468.43 638.757 464.867 627.566Z"
    fill="#FF5D01"
  />
</svg>-->
<?xml version="1.0" encoding="UTF-8" standalone="no"?>
<!-- Created with Inkscape (http://www.inkscape.org/) -->

<svg
   width="80.000008mm"
   height="17.610718mm"
   viewBox="0 0 80.000008 17.610718"
   version="1.1"
   id="svg2943"
   xmlns="http://www.w3.org/2000/svg"
   xmlns:svg="http://www.w3.org/2000/svg">
  <defs
     id="defs2940">
    <clipPath
       clipPathUnits="userSpaceOnUse"
       id="clipPath2766">
      <g
         id="g2770"
         transform="matrix(2.8346458,0,0,-2.8346457,-2445.8971,222.13729)">
        <path
           d="M 798.80005,-3.4077e-6 H 898.8002 V 100.00015 H 798.80005 Z"
           id="path2768"
           style="stroke-width:0.352778" />
      </g>
    </clipPath>
    <clipPath
       clipPathUnits="userSpaceOnUse"
       id="clipPath2760">
      <g
         id="g2764"
         transform="matrix(2.8346458,0,0,-2.8346457,-2430.7906,217.37559)">
        <path
           d="M 798.80005,-3.4077e-6 H 898.8002 V 100.00015 H 798.80005 Z"
           id="path2762"
           style="stroke-width:0.352778" />
      </g>
    </clipPath>
    <clipPath
       clipPathUnits="userSpaceOnUse"
       id="clipPath2754">
      <g
         id="g2758"
         transform="matrix(2.8346458,0,0,-2.8346457,-2436.7526,238.91659)">
        <path
           d="M 798.80005,-3.4077e-6 H 898.8002 V 100.00015 H 798.80005 Z"
           id="path2756"
           style="stroke-width:0.352778" />
      </g>
    </clipPath>
    <clipPath
       clipPathUnits="userSpaceOnUse"
       id="clipPath2748">
      <g
         id="g2752"
         transform="matrix(2.8346458,0,0,-2.8346457,-2462.9532,238.93709)">
        <path
           d="M 798.80005,-3.4077e-6 H 898.8002 V 100.00015 H 798.80005 Z"
           id="path2750"
           style="stroke-width:0.352778" />
      </g>
    </clipPath>
    <clipPath
       clipPathUnits="userSpaceOnUse"
       id="clipPath2742">
      <g
         id="g2746"
         transform="matrix(2.8346458,0,0,-2.8346457,-2475.5192,217.37559)">
        <path
           d="M 798.80005,-3.4077e-6 H 898.8002 V 100.00015 H 798.80005 Z"
           id="path2744"
           style="stroke-width:0.352778" />
      </g>
    </clipPath>
    <clipPath
       clipPathUnits="userSpaceOnUse"
       id="clipPath2736">
      <g
         id="g2740"
         transform="matrix(2.8346458,0,0,-2.8346457,-2388.7506,217.37559)">
        <path
           d="M 798.80005,-3.4077e-6 H 898.8002 V 100.00015 H 798.80005 Z"
           id="path2738"
           style="stroke-width:0.352778" />
      </g>
    </clipPath>
    <clipPath
       clipPathUnits="userSpaceOnUse"
       id="clipPath2730">
      <g
         id="g2734"
         transform="matrix(2.8346458,0,0,-2.8346457,-2370.941,217.37559)">
        <path
           d="M 798.80005,-3.4077e-6 H 898.8002 V 100.00015 H 798.80005 Z"
           id="path2732"
           style="stroke-width:0.352778" />
      </g>
    </clipPath>
    <clipPath
       clipPathUnits="userSpaceOnUse"
       id="clipPath2724">
      <g
         id="g2728"
         transform="matrix(2.8346458,0,0,-2.8346457,-2401.1686,222.13729)">
        <path
           d="M 798.80005,-3.4077e-6 H 898.8002 V 100.00015 H 798.80005 Z"
           id="path2726"
           style="stroke-width:0.352778" />
      </g>
    </clipPath>
    <clipPath
       clipPathUnits="userSpaceOnUse"
       id="clipPath2718">
      <g
         id="g2722"
         transform="matrix(2.8346458,0,0,-2.8346457,-2418.2316,238.90199)">
        <path
           d="M 798.80005,-3.4077e-6 H 898.8002 V 100.00015 H 798.80005 Z"
           id="path2720"
           style="stroke-width:0.352778" />
      </g>
    </clipPath>
    <clipPath
       clipPathUnits="userSpaceOnUse"
       id="clipPath2712">
      <g
         id="g2716"
         transform="matrix(2.8346458,0,0,-2.8346457,-2392.0304,238.88149)">
        <path
           d="M 798.80005,-3.4077e-6 H 898.8002 V 100.00015 H 798.80005 Z"
           id="path2714"
           style="stroke-width:0.352778" />
      </g>
    </clipPath>
    <clipPath
       clipPathUnits="userSpaceOnUse"
       id="clipPath2706">
      <g
         id="g2710"
         transform="matrix(2.8346458,0,0,-2.8346457,-2482.5299,233.86679)">
        <path
           d="M 798.80005,-3.4077e-6 H 898.8002 V 100.00015 H 798.80005 Z"
           id="path2708"
           style="stroke-width:0.352778" />
      </g>
    </clipPath>
    <clipPath
       clipPathUnits="userSpaceOnUse"
       id="clipPath2700">
      <g
         id="g2704"
         transform="matrix(2.8346458,0,0,-2.8346457,-2509.9996,217.37559)">
        <path
           d="M 798.80005,-3.4077e-6 H 898.8002 V 100.00015 H 798.80005 Z"
           id="path2702"
           style="stroke-width:0.352778" />
      </g>
    </clipPath>
    <clipPath
       clipPathUnits="userSpaceOnUse"
       id="clipPath2694">
      <g
         id="g2698"
         transform="matrix(2.8346458,0,0,-2.8346457,-2483.7316,232.83849)">
        <path
           d="M 798.80005,-3.4077e-6 H 898.8002 V 100.00015 H 798.80005 Z"
           id="path2696"
           style="stroke-width:0.352778" />
      </g>
    </clipPath>
    <clipPath
       clipPathUnits="userSpaceOnUse"
       id="clipPath2688">
      <g
         id="g2692"
         transform="matrix(2.8346458,0,0,-2.8346457,-2349.9943,223.77989)">
        <path
           d="M 798.80005,-3.4077e-6 H 898.8002 V 100.00015 H 798.80005 Z"
           id="path2690"
           style="stroke-width:0.352778" />
      </g>
    </clipPath>
    <clipPath
       clipPathUnits="userSpaceOnUse"
       id="clipPath2682">
      <g
         id="g2686"
         transform="matrix(2.8346458,0,0,-2.8346457,-2351.3336,217.37559)">
        <path
           d="M 798.80005,-3.4077e-6 H 898.8002 V 100.00015 H 798.80005 Z"
           id="path2684"
           style="stroke-width:0.352778" />
      </g>
    </clipPath>
    <clipPath
       clipPathUnits="userSpaceOnUse"
       id="clipPath2676">
      <g
         id="g2680"
         transform="matrix(2.8346458,0,0,-2.8346457,-2314.6129,230.27009)">
        <path
           d="M 798.80005,-3.4077e-6 H 898.8002 V 100.00015 H 798.80005 Z"
           id="path2678"
           style="stroke-width:0.352778" />
      </g>
    </clipPath>
    <clipPath
       clipPathUnits="userSpaceOnUse"
       id="clipPath2670">
      <g
         id="g2674"
         transform="matrix(2.8346458,0,0,-2.8346457,-2347.212,221.72419)">
        <path
           d="M 798.80005,-3.4077e-6 H 898.8002 V 100.00015 H 798.80005 Z"
           id="path2672"
           style="stroke-width:0.352778" />
      </g>
    </clipPath>
    <clipPath
       clipPathUnits="userSpaceOnUse"
       id="clipPath2664">
      <g
         id="g2668"
         transform="matrix(2.8346458,0,0,-2.8346457,-2456.3068,259.28279)">
        <path
           d="M 798.80005,-3.4077e-6 H 898.8002 V 100.00015 H 798.80005 Z"
           id="path2666"
           style="stroke-width:0.352778" />
      </g>
    </clipPath>
    <clipPath
       clipPathUnits="userSpaceOnUse"
       id="clipPath2658">
      <g
         id="g2662"
         transform="matrix(2.8346458,0,0,-2.8346457,-2388.2316,260.71159)">
        <path
           d="M 798.80005,-3.4077e-6 H 898.8002 V 100.00015 H 798.80005 Z"
           id="path2660"
           style="stroke-width:0.352778" />
      </g>
    </clipPath>
  </defs>
  <g
     id="layer1"
     transform="translate(-19.264529,-129.70434)">
    <g
       id="g2834"
       transform="translate(-786.2075,53.057844)">
      <g
         id="g1774"
         transform="matrix(0.35277776,0,0,-0.35277778,862.85811,78.3651)"
         clip-path="url(#clipPath2766)">
        <path
           d="M 0,0 -0.697,-3.67 H 8.707 L 7.833,-8.274 H -1.603 L -2.36,-12.258 H 8.738 l -0.919,-4.534 3.372,-0.003 4.188,21.557 H 11.611 L 10.674,0 Z"
           style="fill:#e7e7e7;fill-opacity:1;fill-rule:nonzero;stroke:none"
           id="path1776" />
      </g>
      <g
         id="g1778"
         transform="matrix(0.35277776,0,0,-0.35277778,857.52887,76.685278)"
         clip-path="url(#clipPath2760)">
        <path
           d="M 0,0 H -9.315 L -2.3,-11.919 Z"
           style="fill:#e7e7e7;fill-opacity:1;fill-rule:nonzero;stroke:none"
           id="path1780" />
      </g>
      <g
         id="g1782"
         transform="matrix(0.35277776,0,0,-0.35277778,859.63213,84.284464)"
         clip-path="url(#clipPath2754)">
        <path
           d="M 0,0 4.185,21.541 H -0.096 L -4.284,0.003 Z"
           style="fill:#e7e7e7;fill-opacity:1;fill-rule:nonzero;stroke:none"
           id="path1784" />
      </g>
      <g
         id="g1786"
         transform="matrix(0.35277776,0,0,-0.35277778,868.87512,84.291696)"
         clip-path="url(#clipPath2748)">
        <path
           d="M 0,0 9.145,-0.007 2.285,11.729 Z"
           style="fill:#e7e7e7;fill-opacity:1;fill-rule:nonzero;stroke:none"
           id="path1788" />
      </g>
      <g
         id="g1790"
         transform="matrix(0.35277776,0,0,-0.35277778,873.30812,76.685278)"
         clip-path="url(#clipPath2742)">
        <path
           d="m 0,0 h -9.315 l 7.016,-11.919 z"
           style="fill:#e7e7e7;fill-opacity:1;fill-rule:nonzero;stroke:none"
           id="path1792" />
      </g>
      <g
         id="g1794"
         transform="matrix(0.35277776,0,0,-0.35277778,842.69809,76.685278)"
         clip-path="url(#clipPath2736)">
        <path
           d="m 0,0 h -11.671 l 3.025,-14.158 z"
           style="fill:#e7e7e7;fill-opacity:1;fill-rule:nonzero;stroke:none"
           id="path1796" />
      </g>
      <g
         id="g1798"
         transform="matrix(0.35277776,0,0,-0.35277778,836.41526,76.685278)"
         clip-path="url(#clipPath2730)">
        <path
           d="m 0,0 h -15.427 l -4.445,-21.475 24.617,-0.018 z"
           style="fill:#e7e7e7;fill-opacity:1;fill-rule:nonzero;stroke:none"
           id="path1800" />
      </g>
      <g
         id="g1802"
         transform="matrix(0.35277776,0,0,-0.35277778,847.07889,78.3651)"
         clip-path="url(#clipPath2724)">
        <path
           d="M 0,0 -0.697,-3.67 H 8.71 L 7.833,-8.274 H -1.603 L -2.36,-12.258 H 8.738 l -0.912,-4.5 3.372,-0.003 4.181,21.523 H 11.611 L 10.673,0 Z"
           style="fill:#e7e7e7;fill-opacity:1;fill-rule:nonzero;stroke:none"
           id="path1804" />
      </g>
      <g
         id="g1806"
         transform="matrix(0.35277776,0,0,-0.35277778,853.09833,84.279314)"
         clip-path="url(#clipPath2718)">
        <path
           d="M 0,0 9.117,-0.008 2.278,11.693 Z"
           style="fill:#e7e7e7;fill-opacity:1;fill-rule:nonzero;stroke:none"
           id="path1808" />
      </g>
      <g
         id="g1810"
         transform="matrix(0.35277776,0,0,-0.35277778,843.85513,84.272082)"
         clip-path="url(#clipPath2712)">
        <path
           d="M 0,0 4.178,21.506 H 2.89 L -10.211,0.008 Z"
           style="fill:#e7e7e7;fill-opacity:1;fill-rule:nonzero;stroke:none"
           id="path1812" />
      </g>
      <g
         id="g1814"
         transform="matrix(0.35277776,0,0,-0.35277778,875.78134,82.503007)"
         clip-path="url(#clipPath2706)">
        <path
           d="m 0,0 c -0.871,0.979 -1.241,2.065 -1.165,3.302 l 1.609,8.755 c 0.574,1.504 1.585,2.414 3.125,2.917 l 4.323,1.517 H -1.145 L -5.339,-5.081 5.959,-5.09 c -0.028,0.03 -0.075,0.049 -0.101,0.08 z"
           style="fill:#e7e7e7;fill-opacity:1;fill-rule:nonzero;stroke:none"
           id="path1816" />
      </g>
      <g
         id="g1818"
         transform="matrix(0.35277776,0,0,-0.35277778,885.47204,76.685278)"
         clip-path="url(#clipPath2700)">
        <path
           d="m 0,0 h -12.435 c 0.057,-0.051 0.13,-0.081 0.185,-0.134 l 5.747,-4.909 c 1.065,-1.027 1.499,-2.364 1.322,-4.001 l -1.371,-7.197 c -0.179,-1.85 -1.17,-3.19 -2.858,-3.857 l -4.319,-1.489 9.413,-0.008 z"
           style="fill:#e7e7e7;fill-opacity:1;fill-rule:nonzero;stroke:none"
           id="path1820" />
      </g>
      <g
         id="g1822"
         transform="matrix(0.35277776,0,0,-0.35277778,876.20528,82.140246)"
         clip-path="url(#clipPath2694)">
        <path
           d="m 0,0 5.415,-4.635 0.032,-0.037 c 0.433,-0.511 1.154,-0.9 1.929,-1.044 0.657,-0.121 1.288,-0.055 1.778,0.187 L 9.226,-5.5 15.9,-3.199 c 1.325,0.525 2.071,1.536 2.215,3.006 l 0.006,0.047 1.25,6.55 c 0.142,1.307 -0.181,2.322 -0.988,3.102 l -5.31,4.538 c -0.518,0.518 -1.199,0.873 -1.921,1.006 -0.618,0.114 -1.214,0.053 -1.68,-0.174 L 9.407,14.849 3.051,12.616 C 1.816,12.214 1.046,11.523 0.624,10.443 L -0.842,2.49 C -0.901,1.536 -0.618,0.699 0,0"
           style="fill:#b1ff9b;fill-opacity:1;fill-rule:nonzero;stroke:none"
           id="path1824" />
      </g>
      <g
         id="g1826"
         transform="matrix(0.35277776,0,0,-0.35277778,829.02573,78.944573)"
         clip-path="url(#clipPath2688)">
        <path
           d="m 0,0 c -0.129,-0.065 -0.303,-0.103 -0.484,-0.103 l -0.248,0.022 c -0.32,0.061 -0.606,0.219 -0.789,0.435 l -1.593,1.361 c -0.072,0.081 -0.103,0.169 -0.154,0.254 l -3.365,-17.17 h 5.986 L 2.548,1.089 C 2.406,0.929 2.242,0.784 2.017,0.694 Z"
           style="fill:#b1ff9b;fill-opacity:1;fill-rule:nonzero;stroke:none"
           id="path1828" />
      </g>
      <g
         id="g1830"
         transform="matrix(0.35277776,0,0,-0.35277778,829.49821,76.685278)"
         clip-path="url(#clipPath2682)">
        <path
           d="m 0,0 1.521,-1.298 c 0.34,-0.326 0.475,-0.738 0.421,-1.238 L 1.562,-4.528 C 1.55,-4.65 1.481,-4.736 1.446,-4.844 h 1.583 l -3.294,-16.751 h 5.986 l 3.298,16.751 h 6.47 L 16.455,0 Z"
           style="fill:#b1ff9b;fill-opacity:1;fill-rule:nonzero;stroke:none"
           id="path1832" />
      </g>
      <g
         id="g1834"
         transform="matrix(0.35277776,0,0,-0.35277778,816.54396,81.234171)"
         clip-path="url(#clipPath2676)">
        <path
           d="M 0,0 4.051,7.002 5.473,0 Z M 31.726,12.895 H 29.189 25.86 L 23.561,1.078 16.545,12.895 H 11.617 L 10.012,4.703 8.074,12.895 H 4.293 2.176 -4.114 L -6.442,1.252 c -0.729,-3.566 -2.148,-4.988 -4.66,-4.988 -2.267,0 -3.505,1.057 -3.505,3.325 0,0.513 0.06,1.057 0.18,1.663 l 2.328,11.643 h -0.175 -5.811 -7.435 l -0.937,-4.627 h 7.316 l -1.843,-9.344 c -0.392,-1.903 -1.422,-2.841 -3.053,-2.841 -1.45,0 -2.572,0.753 -3.478,2.147 l -3.87,-3.69 c 1.422,-2.115 3.87,-3.236 7.256,-3.236 2.539,0 4.548,0.557 6.066,1.866 1.511,-1.191 3.616,-1.866 6.236,-1.866 0.157,0 0.294,0.026 0.448,0.03 l -0.019,-0.03 h 6.318 l 2.448,4.193 H 6.379 L 7.228,-8.696 H 7.386 V -8.7 h 5.865 L 15.579,3.146 22.563,-8.7 h 4.928 l 3.285,16.751 h 1.673 l -0.182,0.156 c -0.282,0.312 -0.401,0.657 -0.376,1.037 l 0.445,2.427 c 0.184,0.493 0.496,0.772 0.968,0.927 l 0.844,0.297 z"
           style="fill:#b1ff9b;fill-opacity:1;fill-rule:nonzero;stroke:none"
           id="path1836" />
      </g>
      <g
         id="g1838"
         transform="matrix(0.35277776,0,0,-0.35277778,828.0442,78.219368)"
         clip-path="url(#clipPath2670)">
        <path
           d="m 0,0 1.599,-1.368 0.009,-0.011 c 0.127,-0.151 0.34,-0.266 0.569,-0.308 0.194,-0.036 0.381,-0.016 0.525,0.055 l 0.021,0.009 1.97,0.679 c 0.391,0.155 0.611,0.453 0.654,0.887 L 5.349,-0.043 5.717,1.89 C 5.759,2.275 5.664,2.575 5.426,2.806 L 3.859,4.145 C 3.706,4.298 3.505,4.402 3.292,4.442 3.109,4.476 2.933,4.457 2.796,4.391 L 2.777,4.383 0.901,3.724 C 0.536,3.604 0.309,3.401 0.184,3.082 L -0.248,0.734 C -0.266,0.453 -0.182,0.206 0,0"
           style="fill:#e7e7e7;fill-opacity:1;fill-rule:nonzero;stroke:none"
           id="path1840" />
      </g>
      <g
         id="g1842"
         transform="matrix(0.35277776,0,0,-0.35277778,866.53042,91.469207)"
         clip-path="url(#clipPath2664)">
        <path
           d="M 0,0 4.576,7.489 6.212,0 Z m -6.653,-3.32 2.309,11.504 h 5.136 z m -15.363,5.762 -1.137,-5.826 c -1.027,-0.47 -2.08,-0.691 -3.218,-0.691 -3.689,0 -5.63,1.969 -5.63,4.881 0,4.269 2.913,7.544 7.462,7.544 2.162,0 3.77,-0.613 5.074,-2.164 l 2.111,1.71 -1.091,-5.454 z m -23.519,-6.324 h -4.382 l 2.412,12.036 h 3.855 c 3.661,0 5.521,-1.775 5.521,-4.658 0,-4.217 -2.747,-7.378 -7.406,-7.378 m -37.586,0 h -4.381 l 0.295,1.473 c 0.427,0.95 0.784,1.992 1.026,3.185 l 1.461,7.378 h 3.485 c 3.661,0 5.519,-1.775 5.519,-4.658 0,-4.217 -2.745,-7.378 -7.405,-7.378 m -35.792,1.857 c 0,-1.413 -1.553,-2.273 -4.022,-2.273 -2.302,0 -4.631,0.721 -6.406,2.025 l -0.893,-1.693 h -6.331 l 0.888,4.494 h 9.041 l 0.248,1.251 c 2.836,-1.784 7.475,-1.644 7.475,-3.804 m -15.211,10.263 h 6.19 c -0.388,-0.785 -0.602,-1.667 -0.602,-2.635 0,-0.605 0.114,-1.116 0.28,-1.582 h -6.7 z M 12.63,-3.909 15.791,11.843 h -4.52 L 9.623,3.604 7.598,11.843 H 3.161 l -0.836,-1.291 0.264,1.291 h -14.633 -2.284 -2.236 l -0.455,-2.274 c -1.685,1.663 -4.107,2.606 -7.327,2.606 -2.627,0 -4.916,-0.663 -6.798,-1.789 l 0.292,1.457 h -4.52 l -0.492,-2.462 c -1.646,1.563 -4.115,2.462 -7.285,2.462 h -8.127 l -1.002,-5.007 -4.907,4.193 c -0.489,0.489 -1.13,0.824 -1.811,0.95 -0.582,0.107 -1.144,0.048 -1.583,-0.165 l -0.061,-0.025 -5.89,-2.069 0.425,2.123 h -4.522 l -1.044,-5.221 c -1.154,3.254 -4.344,5.221 -9.065,5.221 h -3.254 -4.41 -0.462 l -2.739,-13.695 c -0.892,-1.532 -2.191,-2.223 -4.01,-2.223 -2.412,0 -3.744,1.136 -3.744,3.493 0,0.501 0.055,1.026 0.166,1.636 l 2.163,10.789 h -1.764 -2.756 -14.161 l -0.034,-0.165 c -1.201,0.319 -2.528,0.497 -3.92,0.497 -1.308,0 -2.498,-0.158 -3.559,-0.446 l 0.023,0.114 h -14.672 l -3.882,-19.413 h 15.032 l 0.01,0.049 c 1.058,-0.222 2.169,-0.382 3.331,-0.382 5.407,0 8.958,2.579 8.958,6.599 0,5.965 -9.651,4.299 -9.624,7.49 0,1.385 1.525,2.384 4.132,2.384 1.914,0 3.801,-0.498 5.271,-1.497 l 0.546,1.111 h 3.852 l -3.135,-15.754 h 4.494 l 3.161,15.754 h 3.449 l -1.435,-7.212 c -0.139,-0.721 -0.222,-1.415 -0.222,-2.079 0,-4.19 2.94,-6.796 7.821,-6.796 1.25,0 2.372,0.174 3.395,0.479 l -0.029,-0.146 h 9.484 c 4.108,0 7.428,1.497 9.556,4.028 l -0.805,-4.028 h 4.52 l 0.987,4.932 4.599,-3.937 0.03,-0.035 c 0.408,-0.482 1.088,-0.849 1.819,-0.984 0.618,-0.114 1.214,-0.052 1.676,0.176 l 0.066,0.027 6.109,2.106 -0.458,-2.285 h 9.488 c 2.592,0 4.874,0.599 6.75,1.665 l -0.333,-1.665 h 4.522 l 0.468,2.343 c 1.67,-1.676 4.167,-2.676 7.312,-2.676 2.539,0 4.937,0.736 6.836,1.983 l -0.33,-1.65 h 4.521 l 3.151,15.754 h 3.912 L -11.998,-7.57 h 2.595 1.898 2.901 l 2.524,4.159 H 6.961 L 7.62,-6.406 7.387,-7.57 h 0.489 4.492 9.248 l 0.749,3.661 z"
           style="fill:#e7e7e7;fill-opacity:1;fill-rule:nonzero;stroke:none"
           id="path1844" />
      </g>
      <g
         id="g1846"
         transform="matrix(0.35277776,0,0,-0.35277778,842.515,91.973256)"
         clip-path="url(#clipPath2658)">
        <path
           d="m 0,0 4.223,-3.745 0.025,-0.03 c 0.335,-0.411 0.901,-0.73 1.513,-0.854 0.518,-0.104 1.019,-0.061 1.41,0.123 l 0.058,0.023 5.316,1.728 c 1.057,0.398 1.661,1.188 1.796,2.35 l 0.006,0.037 1.08,5.169 c 0.131,1.032 -0.111,1.841 -0.739,2.47 l -4.141,3.667 C 10.144,11.354 9.61,11.646 9.04,11.762 8.553,11.86 8.08,11.819 7.708,11.647 L 7.656,11.627 2.592,9.947 C 1.608,9.646 0.989,9.109 0.64,8.261 L -0.632,1.983 C -0.692,1.229 -0.48,0.562 0,0"
           style="fill:#b1ff9b;fill-opacity:1;fill-rule:nonzero;stroke:none"
           id="path1848" />
      </g>
    </g>
  </g>
</svg>

